<svg width="20" height="18" viewBox="0 0 20 18" fill="none" xmlns="http://www.w3.org/2000/svg">
<path fill-rule="evenodd" clip-rule="evenodd" d="M8.51978 14.7978C9.39822 14.7978 10.1106 15.5142 10.1106 16.3971C10.1106 17.2805 9.39814 17.9965 8.51978 17.9965C7.64127 17.9965 6.92886 17.2805 6.92886 16.3971C6.92886 15.5142 7.64127 14.7978 8.51978 14.7978ZM8.18274 16.3971C8.18274 16.0957 8.54661 15.9449 8.75813 16.1577C8.88971 16.2898 8.88971 16.5046 8.75813 16.637C8.5467 16.8493 8.18274 16.6986 8.18274 16.3971Z" fill="black"/>
<path fill-rule="evenodd" clip-rule="evenodd" d="M15.9438 14.7978C16.8223 14.7978 17.5346 15.5142 17.5346 16.3971C17.5346 17.2805 16.8223 17.9965 15.9438 17.9965C15.0654 17.9965 14.3529 17.2805 14.3529 16.3971C14.3529 15.5142 15.0654 14.7978 15.9438 14.7978ZM15.6066 16.3971C15.6066 16.0957 15.9707 15.9449 16.1822 16.1577C16.3139 16.2898 16.3139 16.5046 16.1822 16.637C15.9707 16.8493 15.6066 16.6986 15.6066 16.3971Z" fill="black"/>
<path fill-rule="evenodd" clip-rule="evenodd" d="M14.1481 11.295C16.1919 11.0262 17.8775 9.64193 18.5479 7.72629C19.3945 5.72406 18.9065 4.7771 18.3247 4.50945L12.0395 3.69299L3.80859 2.48555L3.03994 1.92614C3.14797 1.49008 3.05694 1.0375 2.82289 0.686854C2.34838 -0.0236094 1.3906 -0.214347 0.683292 0.263003C-0.0235096 0.740014 -0.213242 1.70306 0.261674 2.41411C0.702902 3.07495 1.56851 3.29518 2.26843 2.91833L3.05302 3.48936L6.28802 11.4955C6.18016 11.6198 6.08814 11.7612 6.01414 11.9184C5.45258 13.1138 6.3336 14.4695 7.6406 14.4695H17.4641C17.8103 14.4695 18.0909 14.1874 18.0909 13.8392C18.0909 13.4912 17.8103 13.209 17.4641 13.209H7.6406C7.44023 13.209 7.27967 13.123 7.17423 12.9541C6.98123 12.6447 7.1542 12.2504 7.49127 12.1705L14.1481 11.295ZM12.3563 5.02262L8.93713 4.50945L9.55677 6.65928L12.7097 6.7474L12.5676 5.92642C12.5676 5.92642 12.4457 5.35253 12.3563 5.02262ZM1.78481 1.38611C1.64595 1.1781 1.3083 1.22983 1.25685 1.49311C1.20472 1.76034 1.49845 1.93415 1.70587 1.7943C1.83769 1.70533 1.8728 1.51805 1.78481 1.38611ZM8.77594 10.7381C8.98726 10.7086 9.19792 10.6792 9.40668 10.6516L8.61072 7.88922L6.15467 7.82056L7.40436 10.9131C7.85673 10.8664 8.31786 10.802 8.77577 10.7381H8.77579L8.77594 10.7381ZM9.92174 7.92578L10.6601 10.487L13.2967 10.1402L12.928 8.00978L9.92174 7.92578ZM5.64112 6.54969L8.24549 6.62246L7.5791 4.3102L4.55713 3.86671L5.64112 6.54969ZM13.7518 5.16291L13.9557 6.7474C13.9557 6.7474 16.1241 6.88953 16.8433 6.88953C17.1975 6.44348 17.5969 5.52118 16.7467 5.44348C16.4962 5.42058 16.1893 5.39559 15.8645 5.36911C15.0867 5.30572 14.2061 5.23396 13.7518 5.16291ZM14.533 9.94057L14.1481 8.00978L16.9399 8.06494C16.3889 8.89405 15.5182 9.67571 14.533 9.94057Z" fill="black"/>
</svg>
