<svg width="20" height="18" viewBox="0 0 20 18" fill="none" xmlns="http://www.w3.org/2000/svg">
<path fill-rule="evenodd" clip-rule="evenodd" d="M18.4726 6.49291H18.2648L16.138 1.32238C16.058 1.12767 15.8641 1 15.6485 1C15.5799 1 15.5137 1.01295 15.4526 1.03673L11.8067 2.45459C11.5018 2.04086 11.0507 1.73571 10.5273 1.61124C10.0773 1.5277 9.6367 1.57643 9.47266 1.61124C8.50133 1.84215 7.77813 2.69524 7.77813 3.71006C7.77813 3.81303 7.78611 3.91426 7.80052 4.01348L4.15568 5.43096L4.15554 5.4311C4.02426 5.48238 3.91659 5.58385 3.86193 5.7166L1.73512 10.8871H1.52734C1.23607 10.8871 1 11.1168 1 11.4C1 12.8943 2.2501 14.11 3.78668 14.11H4.91648C6.45305 14.11 7.70317 12.8943 7.70317 11.4C7.70317 11.1168 7.4671 10.8871 7.17583 10.8871H6.96791L5.03706 6.19284L8.19329 4.96539C8.4983 5.37913 8.94929 5.68429 9.47266 5.8086V13.9379H8.87033C7.33375 13.9379 6.09864 14.9904 6.09864 16.4849C6.09864 16.7682 6.33482 16.9977 6.62598 16.9977H13.4043C13.6954 16.9977 13.9316 16.8006 13.9316 16.6468V16.4844C13.9316 14.9904 12.6662 13.9379 11.1296 13.9379H10.5273V5.8086C11.4986 5.57783 12.2218 4.72474 12.2218 3.71006C12.2218 3.60697 12.2139 3.50574 12.1996 3.40651L14.7018 2.43336L13.0321 6.49291H12.8241C12.533 6.49291 12.2968 6.72248 12.2968 7.00573C12.2968 8.49999 13.5469 9.71568 15.0836 9.71568H16.2133C17.7498 9.71568 19 8.49999 19 7.00573C19 6.72248 18.7639 6.49291 18.4726 6.49291ZM3.78668 13.0843H4.91648C5.68745 13.0843 6.34252 12.5918 6.56622 11.9133C6.56545 11.9133 6.56474 11.9131 6.564 11.913C6.5633 11.9129 6.56256 11.9128 6.56182 11.9128H2.13681C2.36038 12.5916 3.01544 13.0843 3.78668 13.0843ZM2.87111 10.8871H5.83205L4.35151 7.28792L2.87111 10.8871ZM7.23531 15.9721H12.7949C12.5715 15.2934 11.901 14.9635 11.1298 14.9635H8.87033C8.09893 14.9635 7.45887 15.2934 7.23531 15.9721ZM8.83281 3.70993C8.83281 4.33586 9.35647 4.84494 9.99997 4.84494C10.6436 4.84494 11.1672 4.33586 11.1672 3.70993C11.1672 3.08413 10.6435 2.57492 9.99997 2.57492C9.35647 2.57492 8.83281 3.08413 8.83281 3.70993ZM17.1288 6.49291L15.6485 2.89369L14.1679 6.49291H17.1288ZM15.0836 8.69004H16.2133C16.9844 8.69004 17.6393 8.19749 17.863 7.51896C17.8616 7.51882 17.8601 7.51869 17.8586 7.51855H13.4336C13.6572 8.19725 14.3124 8.69004 15.0836 8.69004Z" fill="black"/>
</svg>
