<svg width="20" height="19" viewBox="0 0 20 19" fill="currentColor" xmlns="http://www.w3.org/2000/svg">
<path d="M19.534 16.0392L14.9992 11.5044C15.7061 10.3441 16.079 9.01112 16.0768 7.6524C16.0768 3.552 12.5236 9.70335e-08 8.4232 9.70335e-08C7.44833 -0.000157535 6.48297 0.191742 5.58228 0.564737C4.68158 0.937731 3.86319 1.48451 3.17385 2.17385C2.48451 2.86319 1.93773 3.68158 1.56474 4.58228C1.19174 5.48297 0.999842 6.44833 1 7.4232C1 11.5224 4.5532 15.0756 8.6524 15.0756C9.96634 15.0768 11.2568 14.7271 12.3904 14.0628L16.9492 18.624C17.1636 18.8378 17.454 18.9579 17.7568 18.9579C18.0596 18.9579 18.35 18.8378 18.5644 18.624L19.696 17.4924C20.1412 17.0472 19.9792 16.4844 19.534 16.0392ZM3.2848 7.4232C3.28464 6.74831 3.41743 6.08001 3.67559 5.45645C3.93375 4.83289 4.31222 4.2663 4.78938 3.78903C5.26654 3.31176 5.83304 2.93316 6.45654 2.67485C7.08004 2.41655 7.74831 2.2836 8.4232 2.2836C11.2624 2.2836 13.792 4.812 13.792 7.6524C13.7917 9.01541 13.2501 10.3225 12.2863 11.2863C11.3225 12.2501 10.0154 12.7917 8.6524 12.792C5.8132 12.7908 3.2848 10.2612 3.2848 7.4232V7.4232Z" fill="currentColor"/>
</svg>
